<svg xmlns="http://www.w3.org/2000/svg" version="1.1" xmlns:xlink="http://www.w3.org/1999/xlink" width="512" height="512" x="0" y="0" viewBox="0 0 278.55 272.42" style="enable-background:new 0 0 512 512" xml:space="preserve" class=""><g><g data-name="Layer 2"><g data-name="Layer 1"><path fill="#fddc85" d="M24.32 167.59h104.83v104.83H24.32z" opacity="1" data-original="#fddc85"></path><path fill="#db5743" d="M24.32 272.42 0 248.1V143.26l24.32 24.33z" opacity="1" data-original="#db5743"></path><path fill="#f87670" d="M24.32 167.59 0 143.26h104.83l24.32 24.33z" opacity="1" data-original="#f87670" class=""></path><path fill="#525c6b" d="M91.68 216.52a17.37 17.37 0 0 0-14.51-27H56.06a4.35 4.35 0 0 0-4.35 4.35v52.23a4.35 4.35 0 0 0 4.35 4.35h30.47a17.36 17.36 0 0 0 5.15-33.95zm-31.27-18.28h16.76a8.71 8.71 0 0 1 0 17.41H60.41zm26.12 43.53H60.41v-17.41h26.12a8.71 8.71 0 0 1 0 17.41z" opacity="1" data-original="#525c6b" class=""></path><path fill="#ffbd66" d="M173.72 137.34h104.83v104.83H173.72z" opacity="1" data-original="#ffbd66" class=""></path><path fill="#2ba0bf" d="m173.72 242.18-24.32-24.32V113.02l24.32 24.32z" opacity="1" data-original="#2ba0bf" class=""></path><path fill="#59c5ef" d="m173.72 137.34-24.32-24.32h104.83l24.32 24.32z" opacity="1" data-original="#59c5ef"></path><path fill="#525c6b" d="M244.36 203.17a19.26 19.26 0 0 1-15.68 8.35c-11 0-20-9.76-20-21.76s9-21.76 20-21.76a19.26 19.26 0 0 1 15.68 8.35 4.36 4.36 0 0 0 7.07-5.09 27.9 27.9 0 0 0-22.75-12c-15.8 0-28.66 13.67-28.66 30.47s12.86 30.47 28.66 30.47a27.88 27.88 0 0 0 22.75-12 4.35 4.35 0 1 0-7.07-5.08z" opacity="1" data-original="#525c6b" class=""></path><path fill="#f1bb6b" d="m56.445 47.301 100.008-31.344 31.344 100.008L87.79 147.309z" opacity="1" data-original="#f1bb6b" class=""></path><path fill="#3daa9d" d="m87.83 147.32-30.48-15.93L25.98 31.37 56.47 47.3z" opacity="1" data-original="#3daa9d" class=""></path><path fill="#79ccb8" d="M56.47 47.3 25.98 31.37 126.01 0l30.48 15.93z" opacity="1" data-original="#79ccb8" class=""></path><path fill="#525c6b" d="M118.06 53.75a4.35 4.35 0 0 0-7.64 2.48l-2.88 35.86-1.63 20.27a4.36 4.36 0 0 0 4 4.69h.36a4.35 4.35 0 0 0 4.33-4l1.4-17.26 21-6.6 11.46 13.35a4.35 4.35 0 1 0 6.6-5.67zm-1.33 32.69 1.53-19.1L130.85 82z" opacity="1" data-original="#525c6b" class=""></path></g></g></g></svg>