<svg xmlns="http://www.w3.org/2000/svg" version="1.1" xmlns:xlink="http://www.w3.org/1999/xlink" width="512"
    height="512" x="0" y="0" viewBox="0 0 512 512" style="enable-background:new 0 0 512 512" xml:space="preserve">
    <g>
        <path fill="#3d5b8f" d="M210.904 308.834h51.472v111.523h-51.472z" opacity="1"></path>
        <path fill="#c9c5c9" d="M185.768 411.779a25.687 25.687 0 0 0-21.413 11.461l-12.064 18.096a8.572 8.572 0 0 0 2.379 11.896c3.954 2.622 9.266 1.562 11.896-2.379l12.064-18.096a8.56 8.56 0 0 1 7.138-3.82h32.63l10.266-17.157h-42.896z" opacity="1"></path>
        <path fill="#b8b2b8" d="M98.109 106.261l-57.261 15.788-6.987-50.913 65.214-7.919z" opacity="1"></path>
        <path fill="#c9c5c9" d="M94.417 67.41l-38.908 21.868a17.16 17.16 0 0 0-8.585 15.274l.606 25.434c.11 4.63-5.89 6.539-8.476 2.697l-15.264-22.68a51.472 51.472 0 0 1-6.123-45.035l4.504-13.496 44.762-16.204z" opacity="1"></path>
        <path fill="#5572b3" d="M360.48 242.931a300.242 300.242 0 0 0-115.319-125.704h9.563c-6.281-3.769-21.362-8.684-25.829-14.49l-42.971-55.862-41.54-38.49A120.05 120.05 0 0 0 100.294 0H88.795C59.255 0 33.03 18.901 23.688 46.925l-1.516 4.547h12.82a42.894 42.894 0 0 1 36.396 20.196l40.047 64.213a171.582 171.582 0 0 1 25.487 77.635l.869 11.292a120.104 120.104 0 0 0 53.127 90.718l35.2 23.467a42.893 42.893 0 0 1 19.101 35.689v45.674h25.736l51.472-42.894 57.781 23.331 66.947 78.719 32.209 26.353 2.491-14.406z" opacity="1"></path>
        <path fill="#223c6e" d="m388.345 359.092-23.058 2.944c-19.098 15.139-42.86 15.428-42.86 15.428l124.728 102.05z" opacity="1"></path>
        <path fill="#1b4d6d" d="m371.805 265.552-90.354 17.063s64.132 102.524 133.971 92.321l-3.503-27.245z" opacity="1"></path>
        <g fill="#3d5b8f">
            <path d="M358.054 242.931a300.247 300.247 0 0 0-78.316-99.511l-21.019-23.754a293.455 293.455 0 0 0-3.995-2.439h-.001a58.5 58.5 0 0 1-16.265-14.49l-42.971-55.862c-13.379-17.393-31.216-30.607-51.105-38.489l80.477 104.81a75.318 75.318 0 0 0 21.014 18.731c-9.281 9.98-19.989 24.263-27.302 42.667-10.195 25.656-3.301 54.884 16.519 74.103 31.093 30.15 89.431 70.348 149.523 63.16l1.961-17.513zM496.174 501.198l-63.955-130.956-14.871-7.565-1.926 12.259 63.942 130.93 5.367 4.392c6.204 5.076 14.961-1.857 11.443-9.06z" fill="#3d5b8f" opacity="1"></path>
        </g>
        <circle cx="99.38" cy="42.894" r="8.579" fill="#ffaa5a" opacity="1"></circle>
        <path fill="#1b4d6d" d="M370.044 242.931A300.251 300.251 0 0 0 258.72 119.666c-3.374 2.817-7.955 7.049-12.82 12.275 47.057 28.236 84.655 69.22 108.732 118.517l29.984 61.397 11.719 6.351 5.689-9.795z" opacity="1"></path>
        <path fill="#b8b2b8" d="M331.014 454.672a8.564 8.564 0 0 1-7.146-3.82l-12.064-18.096a8.56 8.56 0 0 0-7.138-3.82h-76.002a8.56 8.56 0 0 0-7.138 3.82l-12.064 18.096c-2.631 3.942-7.942 5.001-11.896 2.379a8.572 8.572 0 0 1-2.379-11.896l12.064-18.096a25.692 25.692 0 0 1 21.413-11.461h76.002c8.621 0 16.63 4.285 21.413 11.461l12.064 18.096a8.572 8.572 0 0 1-2.379 11.896 8.539 8.539 0 0 1-4.75 1.441z" opacity="1"></path>
        <path fill="#3d5b8f" d="M402.023 308.412a114.232 114.232 0 0 1-17.408 3.443l30.809 63.079c5.586-.813 11.166-2.328 16.794-4.693z" opacity="1"></path>
    </g>
</svg>
